<?xml version="1.0" encoding="utf-8"?>
<!-- Generator: Adobe Illustrator 22.1.0, SVG Export Plug-In . SVG Version: 6.00 Build 0)  -->
<svg version="1.1" id="Layer_1" xmlns="http://www.w3.org/2000/svg" xmlns:xlink="http://www.w3.org/1999/xlink" x="0px" y="0px"
	 viewBox="0 0 100 100" style="enable-background:new 0 0 100 100;" xml:space="preserve">
<style type="text/css">
	.st0{fill:url(#SVGID_1_);}
	.st1{fill:url(#SVGID_2_);}
	.st2{fill:url(#SVGID_3_);}
	.st3{fill:url(#SVGID_4_);}
	.st4{fill:url(#SVGID_5_);}
	.st5{fill:url(#SVGID_6_);}
	.st6{fill:url(#SVGID_7_);}
</style>
<linearGradient id="SVGID_1_" gradientUnits="userSpaceOnUse" x1="52" y1="41.5256" x2="52" y2="36.6576" gradientTransform="matrix(1 0 0 -1 0 101.2756)">
	<stop  offset="0" style="stop-color:#6DC7FF"/>
	<stop  offset="1" style="stop-color:#E6ABFF"/>
</linearGradient>
<path class="st0" d="M62,64H42c-0.6,0-1-0.4-1-1v-2c0-0.6,0.4-1,1-1h20c0.6,0,1,0.4,1,1v2C63,63.6,62.6,64,62,64z"/>
<linearGradient id="SVGID_2_" gradientUnits="userSpaceOnUse" x1="50" y1="96.2756" x2="50" y2="5.8429" gradientTransform="matrix(1 0 0 -1 0 101.2756)">
	<stop  offset="0" style="stop-color:#1A6DFF"/>
	<stop  offset="1" style="stop-color:#C822FF"/>
</linearGradient>
<path class="st1" d="M81.2,18.8h-3.5v-1.7c0-2.9-2.3-5.2-5.2-5.2H51.6C50.8,8,47.3,5,43.1,5s-7.7,3-8.5,6.9H18.8
	c-2.9,0-5.2,2.3-5.2,5.2v62.3c0,2.9,2.3,5.2,5.2,5.2h1.7v5.2c0,2.9,2.3,5.2,5.2,5.2h55.4c2.9,0,5.2-2.3,5.2-5.2V24
	C86.3,21.2,84,18.8,81.2,18.8z M18.8,81.2c-1,0-1.7-0.8-1.7-1.7V17.1c0-1,0.8-1.7,1.7-1.7h15.6v3.5h-8.7c-2.9,0-5.2,2.3-5.2,5.2
	v57.1H18.8z M82.9,89.8c0,1-0.8,1.7-1.7,1.7H25.8c-1,0-1.7-0.8-1.7-1.7V24c0-1,0.8-1.7,1.7-1.7h8.7v5.2c0,4.8,3.9,8.7,8.7,8.7
	s8.7-3.9,8.7-8.7v-1.7c0-2.9-2.3-5.2-5.2-5.2c-2.9,0-5.2,2.3-5.2,5.2v3.5h3.5v-3.5c0-1,0.8-1.7,1.7-1.7c1,0,1.7,0.8,1.7,1.7v1.7
	c0,2.9-2.3,5.2-5.2,5.2s-5.2-2.3-5.2-5.2V15.4v-1.7c0-2.9,2.3-5.2,5.2-5.2s5.2,2.3,5.2,5.2v1.7h3.5h20.8c1,0,1.7,0.8,1.7,1.7v1.7
	h-19v3.5h26c1,0,1.7,0.8,1.7,1.7V89.8z"/>
<linearGradient id="SVGID_3_" gradientUnits="userSpaceOnUse" x1="58" y1="77.2756" x2="58" y2="25.0256" gradientTransform="matrix(1 0 0 -1 0 101.2756)">
	<stop  offset="0" style="stop-color:#1A6DFF"/>
	<stop  offset="1" style="stop-color:#C822FF"/>
</linearGradient>
<path class="st2" d="M53,36h10v2H53V36z"/>
<linearGradient id="SVGID_4_" gradientUnits="userSpaceOnUse" x1="58" y1="77.2756" x2="58" y2="25.0256" gradientTransform="matrix(1 0 0 -1 0 101.2756)">
	<stop  offset="0" style="stop-color:#1A6DFF"/>
	<stop  offset="1" style="stop-color:#C822FF"/>
</linearGradient>
<path class="st3" d="M53,40h10v2H53V40z"/>
<linearGradient id="SVGID_5_" gradientUnits="userSpaceOnUse" x1="52" y1="77.2756" x2="52" y2="25.0256" gradientTransform="matrix(1 0 0 -1 0 101.2756)">
	<stop  offset="0" style="stop-color:#1A6DFF"/>
	<stop  offset="1" style="stop-color:#C822FF"/>
</linearGradient>
<path class="st4" d="M41,48h22v2H41V48z"/>
<linearGradient id="SVGID_6_" gradientUnits="userSpaceOnUse" x1="52" y1="77.2756" x2="52" y2="25.0256" gradientTransform="matrix(1 0 0 -1 0 101.2756)">
	<stop  offset="0" style="stop-color:#1A6DFF"/>
	<stop  offset="1" style="stop-color:#C822FF"/>
</linearGradient>
<path class="st5" d="M41,52h22v2H41V52z"/>
<linearGradient id="SVGID_7_" gradientUnits="userSpaceOnUse" x1="52" y1="77.2756" x2="52" y2="25.0256" gradientTransform="matrix(1 0 0 -1 0 101.2756)">
	<stop  offset="0" style="stop-color:#1A6DFF"/>
	<stop  offset="1" style="stop-color:#C822FF"/>
</linearGradient>
<path class="st6" d="M41,56h22v2H41V56z"/>
</svg>
