<?xml version="1.0" encoding="utf-8"?>
<!-- Generator: Adobe Illustrator 22.1.0, SVG Export Plug-In . SVG Version: 6.00 Build 0)  -->
<svg version="1.1" id="Layer_1" xmlns="http://www.w3.org/2000/svg" xmlns:xlink="http://www.w3.org/1999/xlink" x="0px" y="0px"
	 viewBox="0 0 100 100" style="enable-background:new 0 0 100 100;" xml:space="preserve">
<path d="M50.7,3.6c-0.2,0-0.4,0.1-0.6,0.2c-0.8,0.5-0.9,1.4-0.5,2.1L51.8,9c0.3,0.5,0.3,1.1,0.2,1.5l-1.5,2.9
		c-0.8,1.5-0.6,3.2,0.3,4.6l0.9,1.5c0.3,0.5,0.3,1.2,0,1.7l-0.8,1.2c-1.1,1.5-1.1,3.5,0,5l0.8,1.2c0.3,0.5,0.3,1.2,0,1.7L49.8,33
		c-0.5,0.8-0.3,1.7,0.5,2.1c0.3,0.2,0.6,0.3,0.9,0.3c0.5,0,0.9-0.3,1.2-0.6l1.8-2.7c1.1-1.5,1.1-3.5,0-5l-0.8-1.2
		c-0.3-0.5-0.3-1.2,0-1.7l0.8-1.2c1.1-1.5,1.1-3.5,0-5l-0.9-1.5c-0.3-0.5-0.3-1.1-0.2-1.5l1.5-2.9c0.8-1.5,0.6-3.2-0.3-4.6l-2.1-3.1
		C51.9,3.7,51.3,3.5,50.7,3.6z M41.6,14c-0.2,0-0.4,0.1-0.6,0.2c-0.8,0.5-0.9,1.4-0.5,2.1l2,3.1c0.3,0.5,0.3,1.2,0,1.7l-0.8,1.2
		c-1.1,1.5-1.1,3.5,0,5l0.8,1.2c0.3,0.5,0.3,1.2,0,1.7L40.7,33c-0.5,0.8-0.3,1.7,0.5,2.1c0.3,0.2,0.6,0.3,0.9,0.3
		c0.5,0,0.9-0.3,1.2-0.6l1.8-2.7c1.1-1.5,1.1-3.5,0-5l-0.8-1.2c-0.3-0.5-0.3-1.2,0-1.7l0.8-1.2c1.1-1.5,1.1-3.5,0-5l-2-3.2
		C42.8,14.1,42.2,13.9,41.6,14z M62.9,18.9c-0.4,0.1-0.7,0.3-1,0.7l-2,2.9c-1.1,1.5-1.1,3.5,0,5l0.8,1.2c0.3,0.5,0.3,1.2,0,1.7
		l-1.8,2.8c-0.5,0.8-0.3,1.7,0.5,2.1c0.3,0,0.6,0.1,0.9,0.1c0.5,0,0.9-0.3,1.2-0.6l1.8-2.7c1.1-1.5,1.1-3.5,0-5l-0.8-1.2
		c-0.3-0.5-0.3-1.2,0-1.7l2-2.9c0.5-0.8,0.3-1.7-0.5-2.1C63.7,18.9,63.3,18.8,62.9,18.9z M32.4,23.3c-0.2,0-0.4,0.1-0.6,0.2
		c-0.8,0.5-0.9,1.4-0.5,2.1l2,2.9c0.3,0.5,0.3,1.2,0,1.7L31.5,33c-0.5,0.8-0.3,1.7,0.5,2.1c0.3,0.2,0.6,0.3,0.9,0.3
		c0.5,0,0.9-0.3,1.2-0.6l1.8-2.7c1.1-1.5,1.1-3.5,0-5l-2-3.1C33.6,23.4,33,23.2,32.4,23.3z M23.2,33.9c-2.6,0-4.6,2-4.6,4.6H15
		c-0.9,0-1.8,0.5-2.4,1.2c-0.6,0.8-0.8,1.7-0.6,2.6l2.7,10.9l-2.6,2c-0.8,0.6-1.2,1.5-1.2,2.4V66c0,1.7,1.4,3.1,3.1,3.1h4.7l0.8,2.9
		c1.2,4.7,3.8,9.2,7.6,12.4H5.2c-0.6,0-1.1,0.3-1.4,0.9c-0.3,0.6-0.2,1.1,0.1,1.5l1.8,2.4c2,2.8,5.2,4.3,8.6,4.3h64.2
		c3.4,0,6.6-1.5,8.6-4.3l1.8-2.4c0.3-0.5,0.5-1.1,0.1-1.5c-0.3-0.5-0.8-0.9-1.4-0.9H67.3c2.9-2.6,5.2-5.8,6.6-9.3
		c5.2-1.1,13.6-2.9,16.5-6c4.1-4.1,4.1-11,0-15.1c-2.9-2.9-7.2-3.8-11-2.6l2-9.2c0.2-0.9,0-1.8-0.6-2.6c-0.6-0.8-1.4-1.1-2.4-1.1
		H27.8C27.8,35.9,25.8,33.9,23.2,33.9z M23.2,37c0.9,0,1.5,0.6,1.5,1.5h-3.1C21.7,37.6,22.3,37,23.2,37z M15,41.6h3.7v8.6
		c-0.2,0-0.1,0.2-0.3,0.2l-0.9,0.8L15,41.6z M21.9,41.6h56.7l-6.4,29c-1.4,5.8-4.9,10.7-9.9,13.8h-30c-4.9-2.9-8.4-7.6-9.8-13.1
		l-0.6-2.1h4.4c1.7,0,3.1-1.4,3.1-3.1v-8.4c0-0.9-0.5-1.8-1.1-2.4l-6-4.9c-0.2-0.2-0.3-0.1-0.5-0.3V41.6z M27.8,44.6
		c-0.9,0-1.5,0.6-1.5,1.5s0.6,1.5,1.5,1.5h6.1c0.9,0,1.5-0.6,1.5-1.5s-0.6-1.5-1.5-1.5H27.8z M40.1,44.6c-0.9,0-1.5,0.6-1.5,1.5
		s0.6,1.5,1.5,1.5h32.1c0.9,0,1.5-0.6,1.5-1.5s-0.6-1.5-1.5-1.5H40.1z M20.3,52.7l6,4.9V66H14.1v-8.4L20.3,52.7z M82.3,53.9
		c2.1-0.2,4.3,0.6,5.9,2.2c1.4,1.4,2.3,3.4,2.3,5.5c0,2.1-0.8,4-2.3,5.5c-1.8,1.8-7.8,3.5-13.3,4.7c0-0.2,0.2-0.3,0.2-0.5l3.5-16.2
		C79.7,54.4,81,54,82.3,53.9z M27.8,72.2c-0.9,0-1.5,0.6-1.5,1.5v3.1c0,0.9,0.6,1.5,1.5,1.5c0.9,0,1.5-0.6,1.5-1.5v-3.1
		C29.4,72.8,28.7,72.2,27.8,72.2z M35.5,72.2c-0.9,0-1.5,0.6-1.5,1.5v3.1c0,0.9,0.6,1.5,1.5,1.5c0.9,0,1.5-0.6,1.5-1.5v-3.1
		C37,72.8,36.4,72.2,35.5,72.2z M43.1,72.2c-0.9,0-1.5,0.6-1.5,1.5v3.1c0,0.9,0.6,1.5,1.5,1.5c0.9,0,1.5-0.6,1.5-1.5v-3.1
		C44.6,72.8,44,72.2,43.1,72.2z M50.8,72.2c-0.9,0-1.5,0.6-1.5,1.5v3.1c0,0.9,0.6,1.5,1.5,1.5c0.9,0,1.5-0.6,1.5-1.5v-3.1
		C52.3,72.8,51.7,72.2,50.8,72.2z M58.4,72.2c-0.9,0-1.5,0.6-1.5,1.5v3.1c0,0.9,0.6,1.5,1.5,1.5c0.9,0,1.5-0.6,1.5-1.5v-3.1
		C59.9,72.8,59.3,72.2,58.4,72.2z M66,72.2c-0.9,0-1.5,0.6-1.5,1.5v3.1c0,0.9,0.6,1.5,1.5,1.5c0.9,0,1.5-0.6,1.5-1.5v-3.1
		C67.6,72.8,67,72.2,66,72.2z M8.3,87.4h76.4c-1.4,2-3.7,3.1-6.1,3.1H14.4C11.9,90.5,9.6,89.4,8.3,87.4z"/>
</svg>
