<?xml version="1.0" encoding="utf-8"?>
<!-- Generator: Adobe Illustrator 22.1.0, SVG Export Plug-In . SVG Version: 6.00 Build 0)  -->
<svg version="1.1" id="Layer_1" xmlns="http://www.w3.org/2000/svg" xmlns:xlink="http://www.w3.org/1999/xlink" x="0px" y="0px"
	 viewBox="0 0 100 100" style="enable-background:new 0 0 100 100;" xml:space="preserve">
<path d="M44.2,5c-5.4,0-9.8,4.4-9.8,9.8s4.4,9.8,9.8,9.8c5.4,0,9.8-4.4,9.8-9.8S49.6,5,44.2,5z M89.2,5c-0.9,0-1.7,0.7-1.9,1.6h0
	c-2.9,14.8-9.6,30.8-27.4,39.1l0,0.1l0-0.1v4.4l-17.6,7.7l0,0.1l-9.3,27c-0.3,0.7-0.5,1.5-0.5,2.3c0,3.2,2.6,5.9,5.9,5.9
	c2.7,0,5-1.8,5.7-4.3l8-23l16.4-7.1l1.2,13c0.1,3.2,2.7,5.7,5.9,5.7c3.2,0,5.9-2.6,5.9-5.9c0-0.1,0-0.2,0-0.3h0l-2-21.8
	c0-0.1,0-0.3,0-0.4c0-2.7-2.2-4.9-4.9-4.9c-0.9,0-1.7,0.2-2.5,0.7l-10.2,4.4l-0.1-0.1c19.1-9,26.4-26.5,29.4-41.8h0
	c0-0.1,0.1-0.2,0.1-0.4C91.1,5.9,90.2,5,89.2,5z M59.8,45.7v-7.8L78.3,15l0,0c0.7-0.9,1.2-2,1.2-3.2c0-2.7-2.2-4.9-4.9-4.9
	c-1.8,0-3.4,1-4.2,2.5L55.9,26.5L29,35.8l-6.9-10.6c-0.8-1.6-2.5-2.6-4.3-2.6c-2.7,0-4.9,2.2-4.9,4.9c0,1.1,0.4,2.1,1,2.9L23,44.5
	c0.5,1,1.5,1.6,2.6,1.6c0.3,0,0.6,0,0.9-0.1l0,0c0,0,0,0,0,0l13.8-3.8l1.4,11.5L59.8,45.7L59.8,45.7z M61.8,65.7l-3.9,1.5V93
	c0,0.7,0.4,1.4,1,1.7c0.6,0.4,1.4,0.4,2,0c0.6-0.4,1-1,1-1.7V65.7z"/>
</svg>
