<?xml version="1.0" encoding="utf-8"?>
<!-- Generator: Adobe Illustrator 22.1.0, SVG Export Plug-In . SVG Version: 6.00 Build 0)  -->
<svg version="1.1" id="Layer_1" xmlns="http://www.w3.org/2000/svg" xmlns:xlink="http://www.w3.org/1999/xlink" x="0px" y="0px"
	 viewBox="0 0 100 100" style="enable-background:new 0 0 100 100;" xml:space="preserve">
<path d="M73.5,5c-5.5,0-10.9,2.1-15.1,6.3c-1.3,1.3-1.3,3.4,0,4.6c1.3,1.3,3.4,1.3,4.6,0c5.8-5.8,15.2-5.8,21,0
	c2.8,2.8,4.4,6.6,4.4,10.5S86.9,34,84,36.9c-1.3,1.3-1.3,3.4,0,4.6c0.7,0.7,1.5,1,2.3,1c0.8,0,1.6-0.3,2.3-1c8.3-8.3,8.3-22,0-30.3
	C84.5,7,79,5,73.5,5z M26.5,5c-5.7,0-11.1,2.2-15.1,6.2c-8.3,8.3-8.3,22,0,30.3l47.1,47.1c4.1,4.1,9.4,6.2,15.1,6.2
	s11.1-2.2,15.1-6.2c8.3-8.3,8.3-22,0-30.3L41.6,11.2C37.5,7.2,32.2,5,26.5,5z M26.5,11.6c3.9,0,7.7,1.5,10.5,4.4l6,6L22,43l-6-6
	c-2.8-2.8-4.4-6.6-4.4-10.5S13.1,18.8,16,16C18.8,13.1,22.5,11.6,26.5,11.6z M24.2,20.9c-0.9,0-1.8,0.3-2.4,0.9
	c-1.3,1.3-1.2,3.4,0.1,4.7c1.3,1.3,3.4,1.4,4.7,0.1c1.3-1.3,1.2-3.4-0.1-4.7C25.9,21.3,25.1,20.9,24.2,20.9z M47.7,26.7l25.7,25.7
	L52.3,73.3L26.7,47.7L47.7,26.7z M50.2,35.2c-0.9,0-1.8,0.3-2.4,0.9c-1.3,1.3-1.2,3.4,0.1,4.7c1.3,1.3,3.4,1.4,4.7,0.1c0,0,0,0,0,0
	c1.3-1.3,1.2-3.4-0.1-4.7c0,0,0,0,0,0C51.9,35.6,51,35.2,50.2,35.2z M61.5,46.4c-0.9,0-1.8,0.3-2.4,0.9c-1.3,1.3-1.2,3.4,0.1,4.7
	c0,0,0,0,0,0c1.3,1.3,3.4,1.4,4.7,0.1c1.3-1.3,1.2-3.4-0.1-4.7c0,0,0,0,0,0C63.2,46.8,62.3,46.5,61.5,46.4z M38.5,46.9
	c-0.9,0-1.8,0.3-2.4,0.9c-1.3,1.3-1.2,3.4,0.1,4.7c1.3,1.3,3.4,1.4,4.7,0.1c1.3-1.3,1.2-3.4-0.1-4.7c0,0,0,0,0,0
	C40.3,47.2,39.4,46.9,38.5,46.9z M78,57l6,6c2.8,2.8,4.4,6.6,4.4,10.5c0,3.9-1.5,7.7-4.4,10.5c-2.8,2.8-6.6,4.4-10.5,4.4
	c-3.9,0-7.7-1.5-10.5-4.4l-6-6L78,57z M13.6,57.4c-0.8,0-1.7,0.3-2.3,1c-8.3,8.3-8.3,22,0,30.3C15.5,92.9,21,95,26.5,95
	s10.9-2.1,15.1-6.2c1.3-1.3,1.3-3.4,0-4.6c-1.3-1.3-3.4-1.3-4.6,0c-5.8,5.8-15.2,5.8-21,0c-2.8-2.8-4.4-6.6-4.4-10.5
	c0-3.9,1.5-7.7,4.4-10.5c1.3-1.4,1.3-3.5,0-4.7C15.3,57.8,14.4,57.4,13.6,57.4z M49.8,58.2c-0.9,0-1.8,0.3-2.4,0.9
	c-1.3,1.3-1.2,3.4,0.1,4.7c1.3,1.3,3.4,1.4,4.7,0.1c1.3-1.3,1.2-3.4-0.1-4.7C51.5,58.5,50.7,58.2,49.8,58.2z M76.6,73.2
	c-0.9,0-1.8,0.3-2.4,0.9c-1.3,1.3-1.2,3.4,0.1,4.7c0,0,0,0,0,0c1.3,1.3,3.4,1.4,4.7,0.1c0,0,0,0,0,0c1.3-1.3,1.2-3.4-0.1-4.7
	c0,0,0,0,0,0C78.3,73.6,77.4,73.2,76.6,73.2z"/>
</svg>
