<?xml version="1.0" encoding="utf-8"?>
<!-- Generator: Adobe Illustrator 22.1.0, SVG Export Plug-In . SVG Version: 6.00 Build 0)  -->
<svg version="1.1" id="Layer_1" xmlns="http://www.w3.org/2000/svg" xmlns:xlink="http://www.w3.org/1999/xlink" x="0px" y="0px"
	 viewBox="0 0 100 100" style="enable-background:new 0 0 100 100;" xml:space="preserve">
<g id="surface1">
	<path d="M50,5C25.2,5,5,23.4,5,46.1c0,9.3,3.5,18.4,9.8,25.7c2.6,4.7-3.5,12.8-6.1,16.3C7.4,89.9,7,90.4,7,91.3
		c0,1.8,1.3,3.7,4.3,3.7c7,0,13.8-4.2,19.7-8c1.3-0.8,2.5-1.6,3.7-2.3c4.9,1.7,10.1,2.5,15.4,2.5c24.8,0,45-18.4,45-41.1
		S74.8,5,50,5z M33.4,24.6c0.8,0,1.6,0.6,1.8,1.3L44,51.3c0.4,1-0.2,2.1-1.2,2.4c-0.2,0.1-0.4,0.1-0.6,0.1c-0.8,0-1.6-0.5-1.8-1.3
		l-2.3-6.5h-9.4l-2.3,6.5c-0.4,1-1.4,1.6-2.4,1.2c-1-0.4-1.6-1.4-1.2-2.4l8.8-25.4C31.8,25.1,32.5,24.6,33.4,24.6z M33.4,32.5
		L30,42.2h6.7L33.4,32.5z M65.7,38.3c1.1,0,2,0.9,2,2v3.9h9.8c1.1,0,2,0.9,2,2c0,1.1-0.9,2-2,2h-2.3c-0.7,2.7-2.7,8.3-7.6,13.5
		c1.9,1.5,4.2,3,6.9,4.3c1,0.5,1.4,1.7,0.9,2.6c-0.3,0.7-1,1.1-1.8,1.1c-0.3,0-0.6-0.1-0.9-0.2c-3.3-1.6-6-3.4-8.2-5.3
		c-2.6,2.1-5.9,3.9-9.9,5.3c-0.2,0.1-0.4,0.1-0.6,0.1c-0.8,0-1.6-0.5-1.8-1.3c-0.4-1,0.2-2.1,1.2-2.4c3.3-1.1,5.9-2.7,8.1-4.3
		c-3.5-3.5-5.1-6.5-5.2-6.7c-0.5-1-0.2-2.2,0.8-2.7c1-0.5,2.1-0.2,2.6,0.8c0,0.1,1.6,2.8,4.8,6c3.9-4,5.7-8.3,6.5-10.8H53.9
		c-1.1,0-2-0.9-2-2c0-1.1,0.9-2,2-2h9.8v-3.9C63.7,39.1,64.6,38.3,65.7,38.3z"/>
</g>
</svg>
