<?xml version="1.0" encoding="utf-8"?>
<!-- Generator: Adobe Illustrator 22.1.0, SVG Export Plug-In . SVG Version: 6.00 Build 0)  -->
<svg version="1.1" id="Layer_1" xmlns="http://www.w3.org/2000/svg" xmlns:xlink="http://www.w3.org/1999/xlink" x="0px" y="0px"
	 viewBox="0 0 100 100" style="enable-background:new 0 0 100 100;" xml:space="preserve">
<path d="M28.6,22.7c-9,0-16.4,7.3-16.4,16.4v24.7c-0.9,0.2-1.6,1.1-1.6,2.1c0,1.2,0.9,2.1,2.1,2.1h9.7c0.2,0.9,0.6,1.8,1.1,2.6h-7.1
	c-1.2,0-2.1,0.9-2.1,2.1s0.9,2.1,2.1,2.1h63.4c3.9,0,7.3-2.6,8.5-6.1c0.6,0.5,1.4,0.8,2.2,0.9h0.2c1.9,0,3.5-1.4,3.7-3.3l0.4-3.7
	c0.1-1.4,0.2-2.9,0.2-4.3V58v-0.1c0.1-8.5-1.7-16.9-5.4-24.5l-0.9-1.6c-2.9-5.6-8.5-9-14.7-9H28.6z M28.7,27H74V27
	c3.6,0,6.9,1.6,9.2,4.1H69.6c-2,0-3.6,1.6-3.6,3.6v1.6c0,2,1.6,3.6,3.6,3.6h18c1,2.7,1.8,5.6,2.3,8.3c-3.6-3.3-8.6-5.6-13.6-5.6
	H16.5v-2.9h2.9c1.2,0,2.1-0.9,2.1-2.1s-0.9-2.1-2.1-2.1H17c0.1-0.5,0.4-1,0.6-1.4H18h4.3c1.2,0,2.1-0.9,2.1-2.1
	c0-1.2-0.9-2.1-2.1-2.1h-1.4C23,28,25.7,27,28.7,27z M34,31.3c-2,0-3.6,1.6-3.6,3.6v1.4c0,2,1.6,3.6,3.6,3.6h7.1
	c2,0,3.6-1.6,3.6-3.6v-1.4c0-2-1.6-3.6-3.6-3.6H34z M51.8,31.3c-2,0-3.6,1.6-3.6,3.6v1.4c0,2,1.6,3.6,3.6,3.6h7.1
	c2,0,3.6-1.6,3.6-3.6v-1.4c0-2-1.6-3.6-3.6-3.6H51.8z M16.5,47h59.9c7,0,13.9,5.4,14.4,11.2c0,1.4-0.1,2.7-0.2,4.1l-0.2,2
	c-0.4-0.2-0.8-0.4-1.2-0.4c-0.2,0-0.4,0-0.5,0.1c-0.9-4-4.5-6.9-8.8-6.9c-4.2,0-7.8,2.9-8.7,6.8H39.8c-0.3-1.3-0.9-2.4-1.7-3.5
	c-0.4-0.5-1-0.8-1.6-0.8H25.8c-0.6,0-1.3,0.3-1.6,0.8c-0.8,1-1.4,2.2-1.7,3.5h-6V47z M79.9,61.3c2.6,0,4.7,2.1,4.7,4.7
	c0,2.6-2.1,4.7-4.7,4.7c-2.6,0-4.7-2.1-4.7-4.7C75.2,63.4,77.3,61.3,79.9,61.3z M26.9,63.9h8.4c0.4,0.6,0.5,1.4,0.5,2.1
	c0,2.6-2.1,4.7-4.7,4.7c-2.6,0-4.7-2.1-4.7-4.7C26.4,65.2,26.6,64.5,26.9,63.9z M39.8,68.1h31.3c0.2,0.9,0.6,1.8,1.1,2.6H38.8
	C39.3,69.9,39.6,69.1,39.8,68.1z M7.2,70.8c-0.6,0-1.1,0.2-1.6,0.6C5.2,71.8,5,72.3,5,72.8c0,0.6,0.2,1.1,0.6,1.5
	C6.1,74.8,6.6,75,7.1,75s1.1-0.2,1.5-0.6c0.4-0.4,0.6-0.9,0.6-1.5c0-0.6-0.2-1.1-0.6-1.5C8.3,70.9,7.7,70.8,7.2,70.8z"/>
</svg>
