<?xml version="1.0" encoding="utf-8"?>
<!-- Generator: Adobe Illustrator 22.1.0, SVG Export Plug-In . SVG Version: 6.00 Build 0)  -->
<svg version="1.1" id="Layer_1" xmlns="http://www.w3.org/2000/svg" xmlns:xlink="http://www.w3.org/1999/xlink" x="0px" y="0px"
	 viewBox="0 0 100 100" style="enable-background:new 0 0 100 100;" xml:space="preserve">
<path d="M61.2,3.6l-8,8l8,8l8-8L61.2,3.6z M36.7,8.5c-0.6,0-1,0.5-1,1v10.2c0,0.6,0.5,1,1,1h2c4.7,0,5.1,4,5.1,7.7
	c0,1.9-0.2,4.1-0.6,6.5c-2.6-1.2-5-1.9-7-1.9h-0.1c-2.5,0-4,1-4.8,1.8c-0.5,0.5-0.9,1.2-1.2,1.9l0,0L7.7,93.6l58.8-20.1
	c0,0,0.1,0,0.1,0l0,0c0.8-0.3,1.5-0.7,2-1.3c2.1-2.1,2.3-5.8,0.6-10.4c1.3-0.1,2.8-0.1,4.3-0.1c6.3,0,11.2,1.5,11.2,3.6v1.5
	c0,0.6,0.5,1,1,1h8.2c0.3,0,0.5-0.1,0.7-0.3c0.2-0.2,0.3-0.5,0.3-0.7c0,0-0.1-2.2-0.1-2.6v0c0-2.7-1.1-5.2-3.1-7.3
	c-3.2-3.3-8.8-5.4-14.2-5.4c-5.4,0-9.6,1.2-12.6,2.6c-1.3-1.9-2.9-3.9-4.6-5.8c2.9-0.9,5.9-1.5,7.2-1.8c0.5-0.1,0.9-0.2,1.2-0.3
	c3.4-1,9.8-3.6,9.8-9.7c0-1.2-0.5-2.3-1.1-3.3H79c4.2,0,7.8-2.2,7.8-6.4v-3.4c0-0.3,0.1-2.5,3.3-2.5l1.9,0c0.6,0,1-0.5,1-1v-8.1
	c0-0.6-0.5-1-1-1l-3.5,0h0c-4.5,0-7.8,1.5-10.2,4.7c-1.6,2.1-2.1,5.6-2.2,7.6h-1.2c-6,0-8.4,4.2-8.4,10.2v3.5c-3.3,1-7.9,2.8-11.7,6
	c-2.2-1.9-4.4-3.5-6.5-4.9c2-3.8,3.9-8.9,3.9-15.1c0-6.8-4.2-14-13.4-14H36.7z M18.3,11.8l-8,8l8,8l8-8L18.3,11.8z M89.8,35.1
	l-5.1,5.1l5.1,5.1l5.1-5.1L89.8,35.1z M10.2,37.1l-5.1,5.1l5.1,5.1l5.1-5.1L10.2,37.1z M36.2,37.1L36.2,37.1c1.5,0,3.7,0.7,6.3,1.9
	c-0.4,1.6-0.8,3.1-1.3,4.7L41.1,44c-0.1,0.4,0,0.9,0.4,1.2c0.2,0.1,0.4,0.2,0.5,0.2c0.3,0,0.5-0.1,0.7-0.3c0,0,1.5-1.4,3.2-3.9
	c1.8,1.2,3.7,2.6,5.7,4.3c-0.5,0.6-1,1.2-1.4,1.8L46.1,54c-0.3,0.4-0.2,0.9,0.2,1.3c0.2,0.2,0.5,0.3,0.7,0.3c0.2,0,0.4-0.1,0.6-0.2
	l6.4-4.5c0.6-0.4,1.4-0.8,2.2-1.2c1.9,2,3.7,4.1,5.2,6.2c-1.4,0.9-2.2,1.7-2.3,1.8l-4.6,4.6c-0.3,0.3-0.4,0.9-0.1,1.3
	c0.3,0.4,0.8,0.6,1.2,0.4c0,0,3.3-1.2,9.5-1.8c1.5,3.4,1.8,6.1,0.8,7.1c-2,2-11.2-1.1-20.8-10.7c-9.6-9.6-12.8-18.7-10.8-20.8
	C34.6,37.3,35.3,37.1,36.2,37.1z M75.5,77.1l-8,8l8,8l8-8L75.5,77.1z"/>
</svg>
