<?xml version="1.0" encoding="utf-8"?>
<!-- Generator: Adobe Illustrator 22.1.0, SVG Export Plug-In . SVG Version: 6.00 Build 0)  -->
<svg version="1.1" id="Layer_1" xmlns="http://www.w3.org/2000/svg" xmlns:xlink="http://www.w3.org/1999/xlink" x="0px" y="0px"
	 viewBox="0 0 100 100" style="enable-background:new 0 0 100 100;" xml:space="preserve">
<path d="M42.9,5c-2.8,0-5.1,2.3-5.1,5.1V37L27.7,76.3l0,0c-0.1,0.4-0.2,0.9-0.2,1.3c0,2.8,2.3,5.1,5.1,5.1c2.5,0,4.6-1.8,5-4.2
	l6.2-24.4h14.3l-7.9,34.2h0c-0.2,0.5-0.3,1.1-0.3,1.6c0,2.8,2.3,5.1,5.1,5.1c2.5,0,4.6-1.8,5-4.2l7.9-34l8.7,34.3h0
	c0.6,2.3,2.6,3.9,5,3.9c2.8,0,5.1-2.3,5.1-5.1c0-0.4-0.1-0.9-0.2-1.3L76.3,49.2c-1.4-7.7-8-13.5-16.1-13.5H48V10.1
	C48,7.3,45.7,5,42.9,5z M21.4,29.5c-5.6,0-10.2,4.6-10.2,10.2S15.7,50,21.4,50s10.2-4.6,10.2-10.2S27,29.5,21.4,29.5z"/>
</svg>
